<svg width="26" height="27" viewBox="0 0 26 27" fill="none" xmlns="http://www.w3.org/2000/svg">
<path d="M26.0004 13.4001C26.0004 16.7949 24.6518 20.0506 22.2514 22.4511C19.8509 24.8515 16.5952 26.2001 13.2004 26.2001C9.80562 26.2001 6.54989 24.8515 4.14942 22.4511C1.74896 20.0506 0.400391 16.7949 0.400391 13.4001C0.400391 10.0053 1.74896 6.7496 4.14942 4.34913C6.54989 1.94867 9.80562 0.600098 13.2004 0.600098C16.5952 0.600098 19.8509 1.94867 22.2514 4.34913C24.6518 6.7496 26.0004 10.0053 26.0004 13.4001ZM6.80039 13.4001C6.80039 13.6123 6.88468 13.8158 7.03471 13.9658C7.18473 14.1158 7.38822 14.2001 7.60039 14.2001H12.4004V19.0001C12.4004 19.2123 12.4847 19.4158 12.6347 19.5658C12.7847 19.7158 12.9882 19.8001 13.2004 19.8001C13.4126 19.8001 13.616 19.7158 13.7661 19.5658C13.9161 19.4158 14.0004 19.2123 14.0004 19.0001V14.2001H18.8004C19.0126 14.2001 19.216 14.1158 19.3661 13.9658C19.5161 13.8158 19.6004 13.6123 19.6004 13.4001C19.6004 13.1879 19.5161 12.9844 19.3661 12.8344C19.216 12.6844 19.0126 12.6001 18.8004 12.6001H14.0004V7.8001C14.0004 7.58792 13.9161 7.38444 13.7661 7.23441C13.616 7.08438 13.4126 7.0001 13.2004 7.0001C12.9882 7.0001 12.7847 7.08438 12.6347 7.23441C12.4847 7.38444 12.4004 7.58792 12.4004 7.8001V12.6001H7.60039C7.38822 12.6001 7.18473 12.6844 7.03471 12.8344C6.88468 12.9844 6.80039 13.1879 6.80039 13.4001Z" fill="#68CA60"/>
</svg>
