<svg width="26" height="26" viewBox="0 0 26 26" fill="none" xmlns="http://www.w3.org/2000/svg">
<circle cx="12.8" cy="12.8" r="12.8" fill="#FF6060"/>
<path d="M11.5204 8.58527H14.0804C14.0804 8.25407 13.9455 7.93644 13.7055 7.70225C13.4654 7.46806 13.1399 7.33649 12.8004 7.33649C12.4609 7.33649 12.1353 7.46806 11.8953 7.70225C11.6552 7.93644 11.5204 8.25407 11.5204 8.58527ZM10.5604 8.58527C10.5604 8.29828 10.6183 8.01411 10.7309 7.74897C10.8435 7.48382 11.0085 7.24291 11.2165 7.03998C11.4245 6.83705 11.6714 6.67608 11.9432 6.56625C12.2149 6.45643 12.5062 6.3999 12.8004 6.3999C13.0946 6.3999 13.3858 6.45643 13.6576 6.56625C13.9294 6.67608 14.1763 6.83705 14.3843 7.03998C14.5923 7.24291 14.7573 7.48382 14.8699 7.74897C14.9825 8.01411 15.0404 8.29828 15.0404 8.58527H18.7204C18.8477 8.58527 18.9698 8.63461 19.0598 8.72243C19.1498 8.81025 19.2004 8.92936 19.2004 9.05356C19.2004 9.17776 19.1498 9.29687 19.0598 9.38469C18.9698 9.47252 18.8477 9.52185 18.7204 9.52185H17.8756L17.1268 17.0838C17.0694 17.6633 16.7927 18.201 16.3509 18.5923C15.9091 18.9835 15.3337 19.2001 14.737 19.1999H10.8638C10.2672 19.2 9.69197 18.9833 9.25028 18.5921C8.80858 18.2008 8.53206 17.6632 8.47463 17.0838L7.72519 9.52185H6.88039C6.75309 9.52185 6.631 9.47252 6.54098 9.38469C6.45096 9.29687 6.40039 9.17776 6.40039 9.05356C6.40039 8.92936 6.45096 8.81025 6.54098 8.72243C6.631 8.63461 6.75309 8.58527 6.88039 8.58527H10.5604ZM11.8404 11.5511C11.8404 11.4269 11.7898 11.3078 11.6998 11.22C11.6098 11.1322 11.4877 11.0828 11.3604 11.0828C11.2331 11.0828 11.111 11.1322 11.021 11.22C10.931 11.3078 10.8804 11.4269 10.8804 11.5511V16.234C10.8804 16.3582 10.931 16.4774 11.021 16.5652C11.111 16.653 11.2331 16.7023 11.3604 16.7023C11.4877 16.7023 11.6098 16.653 11.6998 16.5652C11.7898 16.4774 11.8404 16.3582 11.8404 16.234V11.5511ZM14.2404 11.0828C14.3677 11.0828 14.4898 11.1322 14.5798 11.22C14.6698 11.3078 14.7204 11.4269 14.7204 11.5511V16.234C14.7204 16.3582 14.6698 16.4774 14.5798 16.5652C14.4898 16.653 14.3677 16.7023 14.2404 16.7023C14.1131 16.7023 13.991 16.653 13.901 16.5652C13.811 16.4774 13.7604 16.3582 13.7604 16.234V11.5511C13.7604 11.4269 13.811 11.3078 13.901 11.22C13.991 11.1322 14.1131 11.0828 14.2404 11.0828ZM9.43015 16.9939C9.46467 17.3415 9.63063 17.6641 9.89567 17.8987C10.1607 18.1334 10.5058 18.2634 10.8638 18.2633H14.737C15.095 18.2634 15.4401 18.1334 15.7051 17.8987C15.9702 17.6641 16.1361 17.3415 16.1706 16.9939L16.9117 9.52185H8.68903L9.43015 16.9939Z" fill="white"/>
</svg>
